<svg width="37" height="27" viewBox="0 0 37 27" fill="none" xmlns="http://www.w3.org/2000/svg">
<path opacity="0.7" fill-rule="evenodd" clip-rule="evenodd" d="M0 14.4015L18.1236 0.772339L18.1316 0.783007L18.1396 0.772339L36.2632 14.4015L35.0611 16L18.1316 3.26873L1.20206 16L0 14.4015ZM24.8575 25H11.3783V16.4948C11.3783 15.3902 10.4829 14.4948 9.37832 14.4948L5.27563 14.4948V16.5733H8.37832C8.9306 16.5733 9.37832 17.021 9.37832 17.5733V25H9.37817V26C9.37817 26.5523 9.82589 27 10.3782 27H25.8853C26.4376 27 26.8853 26.5523 26.8853 26V25H26.8575V17.5733C26.8575 17.021 27.3052 16.5733 27.8575 16.5733H30.9602V14.4948L26.8575 14.4948C25.753 14.4948 24.8575 15.3902 24.8575 16.4948V25Z" fill="#172A24"/>
</svg>
